<svg width="25" height="25" viewBox="0 0 25 25" fill="none" xmlns="http://www.w3.org/2000/svg">
<path d="M14.5878 0C16.6934 0 18.5314 0.419933 20.1017 1.2598C21.672 2.081 22.8765 3.24748 23.7152 4.75924C24.5717 6.25234 25 7.97873 25 9.93841C25 11.5248 24.7323 12.9993 24.197 14.3617C23.6795 15.7242 22.9033 16.816 21.8683 17.6372C20.8512 18.4397 19.6378 18.841 18.228 18.841C17.2823 18.841 16.4971 18.645 15.8726 18.2531C15.2659 17.8611 14.8555 17.3106 14.6413 16.6013C14.1417 17.3292 13.4993 17.8985 12.7141 18.3091C11.929 18.701 11.0724 18.897 10.1445 18.897C8.82405 18.897 7.78016 18.4864 7.01285 17.6652C6.26338 16.8253 5.88865 15.6868 5.88865 14.2497C5.88865 12.8873 6.15632 11.6088 6.69165 10.4143C7.22698 9.2012 7.96752 8.23068 8.91327 7.5028C9.85903 6.77492 10.9208 6.41098 12.0985 6.41098C13.5974 6.41098 14.6146 6.97089 15.1499 8.09071L15.3908 6.60694H19.0846L17.9069 13.6338C17.8533 13.9698 17.8265 14.2684 17.8265 14.5297C17.8265 15.3509 18.1745 15.7615 18.8704 15.7615C19.727 15.7615 20.3783 15.1922 20.8244 14.0538C21.2884 12.8966 21.5203 11.5715 21.5203 10.0784C21.5203 7.93207 20.869 6.25233 19.5664 5.03919C18.2816 3.82606 16.4704 3.21949 14.1328 3.21949C12.1342 3.21949 10.3141 3.72341 8.67238 4.73125C7.04854 5.73908 5.77266 7.1202 4.84475 8.87458C3.91684 10.6103 3.45289 12.5233 3.45289 14.6137C3.45289 16.872 4.07744 18.6264 5.32655 19.8768C6.5935 21.1273 8.3601 21.7525 10.6263 21.7525C12.3929 21.7525 13.9722 21.4166 15.364 20.7447L16.0867 23.7962C14.338 24.5987 12.3751 25 10.1981 25C8.16381 25 6.37045 24.5894 4.81799 23.7682C3.28337 22.947 2.09672 21.7805 1.25803 20.2688C0.419343 18.757 0 16.9933 0 14.9776C0 12.1594 0.633476 9.6118 1.90043 7.33483C3.16738 5.0392 4.90721 3.24748 7.11991 1.95969C9.35046 0.653229 11.8398 0 14.5878 0ZM11.6435 15.4535C12.1431 15.4535 12.6071 15.2949 13.0353 14.9776C13.4814 14.6603 13.8294 14.2404 14.0792 13.7178C14.3469 13.1766 14.4807 12.598 14.4807 11.9821C14.4807 11.3475 14.3112 10.8343 13.9722 10.4423C13.6331 10.0317 13.1692 9.82643 12.5803 9.82643C11.7951 9.82643 11.1438 10.181 10.6263 10.8903C10.1088 11.5995 9.85011 12.4393 9.85011 13.4099C9.85011 14.0258 10.0018 14.5203 10.3051 14.8936C10.6085 15.2669 11.0546 15.4535 11.6435 15.4535Z" fill="black"/>
</svg>
