<svg width="26" height="26" viewBox="0 0 26 26" fill="none" xmlns="http://www.w3.org/2000/svg">
<g clip-path="url(#clip0_282_349)">
<path d="M19.0098 3.63444L17.5344 1.72153C17.2405 1.34335 16.8644 1.037 16.4346 0.8257C16.0047 0.6144 15.5324 0.50369 15.0535 0.501953L11.0188 0.501953C10.5399 0.50369 10.0676 0.6144 9.63775 0.8257C9.20792 1.037 8.8318 1.34335 8.5379 1.72153L7.0625 3.63444H19.0098Z" fill="black"/>
<path d="M13.0399 19.2969C15.3466 19.2969 17.2166 17.4269 17.2166 15.1202C17.2166 12.8135 15.3466 10.9436 13.0399 10.9436C10.7332 10.9436 8.86328 12.8135 8.86328 15.1202C8.86328 17.4269 10.7332 19.2969 13.0399 19.2969Z" fill="black"/>
<path d="M20.3469 5.72266H5.72862C4.34449 5.72431 3.01752 6.27489 2.03878 7.25363C1.06005 8.23236 0.50947 9.55933 0.507813 10.9435L0.507812 20.3409C0.50947 21.725 1.06005 23.052 2.03878 24.0307C3.01752 25.0095 4.34449 25.5601 5.72862 25.5617H20.3469C21.731 25.5601 23.058 25.0095 24.0367 24.0307C25.0155 23.052 25.566 21.725 25.5677 20.3409V10.9435C25.566 9.55933 25.0155 8.23236 24.0367 7.25363C23.058 6.27489 21.731 5.72431 20.3469 5.72266V5.72266ZM13.0378 21.3851C11.7987 21.3851 10.5874 21.0176 9.55713 20.3292C8.52686 19.6408 7.72386 18.6624 7.24968 17.5176C6.7755 16.3728 6.65143 15.1132 6.89317 13.8979C7.1349 12.6826 7.73158 11.5663 8.60775 10.6901C9.48393 9.81393 10.6002 9.21725 11.8155 8.97552C13.0308 8.73378 14.2905 8.85785 15.4353 9.33203C16.58 9.80621 17.5585 10.6092 18.2469 11.6395C18.9353 12.6697 19.3027 13.881 19.3027 15.1201C19.3011 16.7812 18.6405 18.3737 17.4659 19.5483C16.2914 20.7228 14.6988 21.3834 13.0378 21.3851V21.3851Z" fill="black"/>
</g>
<defs>
<clipPath id="clip0_282_349">
<rect width="25.0599" height="25.0599" fill="white" transform="translate(0.507812 0.501953)"/>
</clipPath>
</defs>
</svg>
