<svg width="109" height="110" viewBox="0 0 109 110" fill="none" xmlns="http://www.w3.org/2000/svg">
<path d="M7.69865 69.1789L8.55643 68.2103L9.86812 69.7995L9.91495 67.7394L11.2194 67.9735L10.547 69.9074L12.3813 68.9583L12.806 70.1836L10.7871 70.5999L12.5386 71.6936L11.6281 72.7253L10.321 71.1493L10.2962 73.1869L8.99174 72.9528L9.65033 70.979L7.7981 71.9194L7.36879 70.6807L9.4149 70.2997L7.69865 69.1789Z" fill="black"/>
<path d="M24.4212 86.4587C24.6027 86.2308 24.7814 86.0367 24.9572 85.8764L29.5988 89.5742C29.9485 89.0598 30.0788 88.5267 29.9896 87.9751C29.9004 87.4235 29.6206 86.9602 29.1502 86.5855C28.474 86.0468 27.7708 85.9492 27.0406 86.2926L25.6845 85.2123C26.3132 84.8001 27.0137 84.6071 27.7857 84.6334C28.5445 84.6612 29.2804 84.9591 29.9934 85.5271C30.574 85.9897 30.9934 86.534 31.2516 87.1602C31.4965 87.7878 31.5639 88.4423 31.4537 89.1235C31.3304 89.8062 31.0198 90.4599 30.5221 91.0847C30.0244 91.7094 29.4632 92.1575 28.8385 92.4288C28.2007 92.7016 27.5514 92.7851 26.8908 92.6794C26.2228 92.5677 25.5911 92.2748 24.9957 91.8005C24.4224 91.3437 24.0111 90.8118 23.7618 90.2047C23.5125 89.5976 23.4445 88.9667 23.5576 88.3119C23.6649 87.6644 23.9527 87.0467 24.4212 86.4587ZM25.417 87.9008C25.0555 88.3697 24.9251 88.8727 25.026 89.4096C25.1269 89.9466 25.4163 90.4053 25.894 90.7859C26.3277 91.1314 26.8101 91.2875 27.3413 91.2541C27.8667 91.2281 28.3462 91.0033 28.7797 90.5797L25.417 87.9008Z" fill="black"/>
<path d="M38.2866 97.911C37.9281 98.1982 37.5305 98.3753 37.0939 98.4425C36.6451 98.5152 36.17 98.4576 35.6684 98.2697L36.252 96.7121L36.6348 96.8555C37.2244 97.0764 37.7293 97.095 38.1494 96.9112C38.5607 96.7242 38.9048 96.261 39.1818 95.5218L40.6162 91.6938L42.121 92.2577L39.3957 99.5309L37.8909 98.967L38.2866 97.911Z" fill="black"/>
<path d="M48.9484 101.757L49.2486 93.9959L50.8544 94.058L50.819 94.9736C51.0849 94.6641 51.428 94.4235 51.8485 94.2517C52.2592 94.0889 52.6946 94.0164 53.1547 94.0342C53.7651 94.0578 54.3095 94.2058 54.788 94.4782C55.2571 94.7503 55.6229 95.1406 55.8854 95.6492C56.1384 96.1575 56.2513 96.7637 56.2241 97.468L56.0475 102.032L54.4559 101.97L54.6232 97.6459C54.65 96.951 54.497 96.409 54.1641 96.0199C53.8308 95.6403 53.3637 95.4388 52.7627 95.4156C52.1617 95.3923 51.6804 95.5571 51.3188 95.9099C50.9474 96.2717 50.7483 96.8 50.7214 97.4949L50.5541 101.819L48.9484 101.757Z" fill="black"/>
<path d="M66.5076 98.9426L65.3234 94.8096C65.2431 94.5295 65.1217 94.3444 64.9589 94.2542C64.7898 94.1755 64.5471 94.1815 64.2309 94.2721L63.2824 94.5439L62.9135 93.2566L64.1331 92.9071C64.8287 92.7078 65.4083 92.7177 65.8719 92.9368C66.3354 93.1559 66.6721 93.6313 66.8817 94.3631L68.066 98.4961L68.9468 98.2437L69.3079 99.5039L68.4271 99.7563L68.9591 101.613L67.4007 102.059L66.8688 100.203L65.0529 100.723L64.6918 99.4629L66.5076 98.9426Z" fill="black"/>
<path d="M81.8705 91.5634C81.8481 92.0121 81.7124 92.4701 81.4635 92.9376C81.2145 93.405 80.8461 93.8064 80.3581 94.1416C79.8004 94.5248 79.1973 94.7339 78.5487 94.769C77.8977 94.8172 77.2703 94.6838 76.6663 94.369C76.0624 94.0542 75.5396 93.5754 75.098 92.9325C74.6563 92.2896 74.3916 91.6221 74.3037 90.9299C74.2212 90.2455 74.3138 89.6004 74.5817 88.9945C74.8471 88.4017 75.2587 87.9138 75.8164 87.5306C76.3044 87.1954 76.8046 86.9942 77.3172 86.9271C77.8351 86.8678 78.3152 86.9028 78.7575 87.0322L76.0277 83.0586L77.3522 82.1487L83.8415 91.5946L82.517 92.5045L81.8705 91.5634ZM76.4457 92.0066C76.749 92.4481 77.1027 92.7638 77.5068 92.9536C77.9085 93.1566 78.3162 93.2356 78.73 93.1907C79.1414 93.1589 79.5175 93.026 79.8583 92.7918C80.1914 92.563 80.4505 92.2596 80.6355 91.8817C80.8127 91.5091 80.8826 91.0963 80.845 90.6432C80.7996 90.1955 80.6253 89.7509 80.322 89.3094C80.0187 88.8679 79.6635 88.5418 79.2566 88.3311C78.8472 88.1335 78.4368 88.0506 78.0254 88.0824C77.6062 88.1196 77.2301 88.2525 76.8971 88.4813C76.5562 88.7155 76.2972 89.0188 76.1199 89.3915C75.9402 89.7771 75.8757 90.1977 75.9264 90.6532C75.9693 91.1139 76.1424 91.5651 76.4457 92.0066Z" fill="black"/>
<path d="M92.3009 75.552C92.9483 75.987 93.4325 76.5049 93.7534 77.1056C94.0691 77.7141 94.2089 78.3401 94.1726 78.9838C94.1389 79.6404 93.9333 80.2496 93.5559 80.8112C93.2152 81.3181 92.8176 81.6907 92.3632 81.9288C91.9113 82.1799 91.4612 82.319 91.0128 82.346L91.9488 82.975L91.0446 84.3204L84.5981 79.988L85.5023 78.6426L86.4617 79.2873C86.3095 78.8567 86.2631 78.3783 86.3224 77.852C86.3817 77.3257 86.5791 76.813 86.9146 76.3138C87.2867 75.76 87.7679 75.3474 88.3579 75.0759C88.9558 74.8097 89.5999 74.7105 90.2904 74.7782C90.9834 74.859 91.6536 75.1169 92.3009 75.552ZM88.7314 80.8127C89.176 81.1115 89.625 81.2774 90.0784 81.3104C90.5265 81.3511 90.936 81.281 91.3068 81.0999C91.6776 80.9188 91.9783 80.6567 92.2089 80.3135C92.4396 79.9703 92.5687 79.5929 92.5963 79.1812C92.6317 78.7747 92.5485 78.3678 92.3467 77.9605C92.1475 77.5661 91.8256 77.2196 91.381 76.9208C90.9364 76.622 90.4861 76.4496 90.0302 76.4036C89.569 76.3654 89.1491 76.4342 88.7705 76.61C88.3945 76.7989 88.0938 77.061 87.8684 77.3964C87.6377 77.7396 87.5086 78.1171 87.481 78.5288C87.4534 78.9405 87.5431 79.3461 87.7502 79.7457C87.9598 80.1583 88.2868 80.5139 88.7314 80.8127Z" fill="black"/>
<path d="M98.3416 58.9284C99.2815 59.1167 100.081 59.5021 100.741 60.0847C101.399 60.6765 101.86 61.3871 102.125 62.2166C102.398 63.057 102.444 63.9242 102.265 64.818C102.061 65.8408 101.625 66.6976 100.96 67.3886C100.302 68.0905 99.4758 68.5289 98.4824 68.7037L98.8617 66.8101C99.4183 66.6629 99.8653 66.393 100.203 66.0006C100.54 65.6081 100.767 65.1216 100.883 64.5411C101.011 63.9053 100.981 63.31 100.795 62.7552C100.609 62.2004 100.278 61.7267 99.8005 61.334C99.3215 60.9505 98.7272 60.6877 98.0177 60.5455C97.3082 60.4034 96.6585 60.417 96.0687 60.5864C95.477 60.765 94.9839 61.0736 94.5894 61.5121C94.2041 61.9524 93.9477 62.4905 93.8204 63.1263C93.7041 63.7068 93.7261 64.2431 93.8862 64.7353C94.0464 65.2274 94.355 65.6486 94.812 65.9989L94.4327 67.8925C93.5832 67.3485 92.99 66.6259 92.653 65.7246C92.3141 64.8325 92.2472 63.875 92.452 62.8522C92.6329 61.9492 93.0055 61.166 93.5696 60.5027C94.143 59.8413 94.8472 59.3641 95.6821 59.0714C96.5152 58.7878 97.4017 58.7401 98.3416 58.9284Z" fill="black"/>
<path d="M99.9051 38.2655L99.1078 39.2846L97.7019 37.778L97.7804 39.8372L96.4641 39.6828L97.0177 37.7117L95.2445 38.7706L94.7461 37.5733L96.736 37.035L94.9211 36.0499L95.7672 34.9647L97.1677 36.4583L97.0685 34.423L98.3848 34.5773L97.8475 36.5875L99.6391 35.5362L100.143 36.7465L98.1238 37.2512L99.9051 38.2655Z" fill="black"/>
<path d="M82.1671 22.0347C81.9997 22.2732 81.8332 22.4778 81.6675 22.6485L76.8095 19.24C76.4918 19.7747 76.3942 20.3146 76.5167 20.8598C76.6393 21.405 76.9468 21.8504 77.4391 22.1958C78.1468 22.6924 78.8547 22.747 79.5626 22.3598L80.9819 23.3557C80.3794 23.8054 79.692 24.0406 78.9198 24.0613C78.1607 24.0797 77.408 23.8271 76.6618 23.3036C76.0541 22.8771 75.6024 22.3593 75.3067 21.75C75.024 21.1384 74.917 20.4893 74.9855 19.8026C75.0671 19.1137 75.3373 18.4423 75.7961 17.7884C76.2549 17.1345 76.7877 16.6532 77.3947 16.3443C78.0148 16.0332 78.6578 15.9104 79.3237 15.9758C79.9972 16.0466 80.6456 16.3006 81.2687 16.7378C81.8687 17.1588 82.3116 17.6647 82.5973 18.2555C82.8831 18.8463 82.9894 19.472 82.9163 20.1324C82.8486 20.7852 82.5989 21.4193 82.1671 22.0347ZM81.0854 20.6558C81.4177 20.1658 81.5172 19.6559 81.3838 19.1261C81.2505 18.5962 80.9338 18.1559 80.4337 17.8051C79.9799 17.4866 79.4888 17.3602 78.9606 17.4258C78.4378 17.4838 77.9729 17.7373 77.5659 18.1865L81.0854 20.6558Z" fill="black"/>
<path d="M67.6301 11.447C67.9705 11.1386 68.3565 10.9375 68.7883 10.8439C69.2318 10.744 69.7096 10.7727 70.2217 10.9298L69.7338 12.52L69.343 12.4001C68.7411 12.2154 68.236 12.2276 67.8279 12.4366C67.4287 12.6483 67.1134 13.1315 66.8818 13.8862L65.6829 17.7944L64.1466 17.3231L66.4246 9.8976L67.9609 10.3689L67.6301 11.447Z" fill="black"/>
<path d="M56.7497 8.25674L56.9221 16.0218L55.3155 16.0575L55.2952 15.1415C55.0486 15.4665 54.7207 15.7276 54.3115 15.9247C53.9115 16.1122 53.4813 16.211 53.0209 16.2212C52.4102 16.2348 51.8578 16.1201 51.3636 15.8773C50.8788 15.6343 50.49 15.2669 50.1971 14.7752C49.9136 14.2833 49.764 13.6851 49.7484 12.9804L49.647 8.4144L51.2395 8.37905L51.3355 12.7055C51.3509 13.4008 51.5366 13.9324 51.8926 14.3005C52.2484 14.6592 52.7269 14.8319 53.3282 14.8185C53.9295 14.8052 54.3998 14.6115 54.7393 14.2373C55.088 13.8536 55.2546 13.3141 55.2392 12.6189L55.1432 8.2924L56.7497 8.25674Z" fill="black"/>
<path d="M39.3981 12.1339L40.8315 16.1872C40.9287 16.4619 41.0612 16.6393 41.2291 16.7194C41.4027 16.7876 41.6446 16.7669 41.9547 16.6572L42.8849 16.3282L43.3314 17.5907L42.1354 18.0137C41.4532 18.255 40.874 18.2804 40.398 18.0899C39.9219 17.8994 39.557 17.4453 39.3032 16.7277L37.8698 12.6744L37.0059 12.9799L36.5689 11.7439L37.4327 11.4384L36.7888 9.61776L38.3171 9.07727L38.961 10.8979L40.7418 10.2682L41.1789 11.5041L39.3981 12.1339Z" fill="black"/>
<path d="M24.5112 20.4339C24.5063 19.9847 24.6138 19.5193 24.8339 19.0375C25.0539 18.5558 25.3973 18.1328 25.864 17.7685C26.3973 17.3521 26.9866 17.1067 27.6318 17.0322C28.2787 16.9445 28.9131 17.0394 29.535 17.3169C30.157 17.5944 30.7079 18.0406 31.1879 18.6554C31.6678 19.2703 31.9727 19.9204 32.1025 20.606C32.2265 21.2841 32.1732 21.9336 31.9427 22.5547C31.7138 23.1625 31.3327 23.6746 30.7994 24.091C30.3327 24.4553 29.8456 24.6865 29.338 24.7847C28.8247 24.8754 28.3433 24.8697 27.894 24.7674L30.8604 28.5676L29.5937 29.5564L22.5419 20.5227L23.8086 19.5339L24.5112 20.4339ZM29.8989 19.6616C29.5693 19.2394 29.1971 18.9458 28.7822 18.7808C28.369 18.6027 27.9572 18.5486 27.5468 18.6186C27.1381 18.6753 26.7708 18.8309 26.4449 19.0854C26.1263 19.334 25.8862 19.6526 25.7245 20.0411C25.5703 20.4238 25.5257 20.8401 25.5908 21.29C25.6632 21.7341 25.8643 22.1673 26.1939 22.5896C26.5235 23.0118 26.8978 23.3157 27.3169 23.5012C27.7375 23.6736 28.1522 23.7313 28.5609 23.6746C28.977 23.612 29.3443 23.4564 29.6629 23.2078C29.9888 22.9533 30.2289 22.6348 30.3832 22.2521C30.5391 21.8562 30.5779 21.4325 30.4996 20.9809C30.4288 20.5236 30.2285 20.0838 29.8989 19.6616Z" fill="black"/>
<path d="M15.0741 37.05C14.4015 36.6551 13.8867 36.1676 13.5298 35.5876C13.1777 34.9994 13.0001 34.383 12.9972 33.7384C12.9909 33.0809 13.159 32.4603 13.5016 31.8769C13.8108 31.3501 14.185 30.9541 14.6241 30.6888C15.0598 30.4106 15.5007 30.2444 15.9466 30.1902L14.9741 29.6193L15.7948 28.2213L22.4928 32.1536L21.6721 33.5515L20.6753 32.9663C20.8534 33.3869 20.9288 33.8616 20.9017 34.3906C20.8745 34.9195 20.7086 35.4432 20.4042 35.9619C20.0664 36.5373 19.6112 36.9784 19.0388 37.2853C18.4582 37.5874 17.8213 37.7256 17.128 37.7C16.4314 37.6615 15.7467 37.4449 15.0741 37.05ZM18.317 31.5818C17.8551 31.3106 17.3968 31.1724 16.9423 31.1671C16.4925 31.1536 16.088 31.2486 15.729 31.4518C15.3699 31.6551 15.0857 31.9351 14.8763 32.2916C14.667 32.6482 14.5611 33.0328 14.5586 33.4454C14.5479 33.8533 14.6557 34.2544 14.8819 34.6487C15.1048 35.0302 15.4471 35.3565 15.9091 35.6277C16.371 35.8989 16.8309 36.0436 17.2888 36.0618C17.7515 36.0719 18.1664 35.9776 18.5336 35.7791C18.8975 35.5677 19.1817 35.2878 19.3862 34.9393C19.5956 34.5827 19.7015 34.1981 19.704 33.7855C19.7065 33.3729 19.5923 32.9735 19.3614 32.5872C19.1271 32.1882 18.779 31.853 18.317 31.5818Z" fill="black"/>
<path d="M10.0573 54.0101C9.10777 53.8794 8.28606 53.5433 7.59223 53.0019C6.89969 52.4512 6.39586 51.77 6.08077 50.9582C5.75764 50.1359 5.65825 49.2732 5.7826 48.3701C5.92489 47.3368 6.30718 46.455 6.92945 45.7249C7.5437 44.9842 8.3413 44.4964 9.32226 44.2615L9.05882 46.1746C8.51218 46.3555 8.08241 46.652 7.76952 47.0643C7.45663 47.4765 7.2598 47.9759 7.17904 48.5624C7.09059 49.2048 7.15605 49.7972 7.37543 50.3397C7.5948 50.8821 7.9546 51.3348 8.45481 51.6978C8.95631 52.0514 9.56548 52.2776 10.2823 52.3763C10.9992 52.475 11.6468 52.4219 12.2252 52.217C12.8049 52.0027 13.2783 51.6647 13.6455 51.203C14.0033 50.7401 14.2264 50.1874 14.3149 49.545C14.3956 48.9585 14.3411 48.4245 14.1513 47.9431C13.9614 47.4616 13.6278 47.0599 13.1504 46.738L13.4138 44.8249C14.2948 45.3162 14.9309 46.0014 15.3221 46.8806C15.7145 47.7504 15.8396 48.702 15.6973 49.7354C15.5717 50.6477 15.2475 51.4521 14.7247 52.1485C14.1927 52.8436 13.5188 53.3627 12.7032 53.7057C11.8889 54.0394 11.0069 54.1409 10.0573 54.0101Z" fill="black"/>
</svg>
