<svg width="146" height="41" viewBox="0 0 146 41" fill="none" xmlns="http://www.w3.org/2000/svg">
<path d="M0.667969 0.666992V35.2003H11.868V10.5337H28.1346V0.666992H0.667969ZM28.1346 35.2003L39.4013 40.667V16.0003L28.1346 10.5337V35.2003ZM82.6013 26.6003C82.1346 26.2003 81.6013 25.867 81.0013 25.6003C80.4013 25.4003 79.7346 25.267 79.068 25.267C78.4013 25.267 77.7346 25.4003 77.1346 25.6003C76.5346 25.8003 76.0013 26.1337 75.5346 26.6003C75.068 27.0003 74.7346 27.5337 74.468 28.1337C74.2013 28.7337 74.068 29.4003 74.068 30.1337C74.068 30.867 74.2013 31.5337 74.468 32.1337C74.7346 32.7337 75.068 33.267 75.5346 33.667C76.0013 34.067 76.5346 34.4003 77.1346 34.667C77.7346 34.9337 78.4013 35.0003 79.068 35.0003C79.7346 35.0003 80.4013 34.867 81.0013 34.667C81.6013 34.4003 82.1346 34.067 82.6013 33.667C83.068 33.267 83.4013 32.7337 83.668 32.1337C83.9346 31.5337 84.068 30.867 84.068 30.1337C84.068 29.4003 83.9346 28.7337 83.668 28.1337C83.4013 27.5337 83.068 27.0003 82.6013 26.6003ZM81.6013 31.1337C81.468 31.467 81.3346 31.8003 81.1346 32.067C80.9346 32.3337 80.668 32.6003 80.3346 32.7337C80.0013 32.867 79.6013 33.0003 79.1346 33.0003C78.668 33.0003 78.268 32.9337 77.9346 32.7337C77.6013 32.5337 77.3346 32.3337 77.1346 32.067C76.9346 31.8003 76.7346 31.467 76.668 31.1337C76.5346 30.8003 76.5346 30.4003 76.5346 30.067C76.5346 29.7337 76.6013 29.3337 76.668 29.0003C76.8013 28.667 76.9346 28.3337 77.1346 28.067C77.3346 27.8003 77.6013 27.5337 77.9346 27.4003C78.268 27.2003 78.668 27.1337 79.1346 27.1337C79.6013 27.1337 80.0013 27.2003 80.3346 27.4003C80.668 27.6003 80.9346 27.8003 81.1346 28.067C81.3346 28.3337 81.5346 28.667 81.6013 29.0003C81.7346 29.3337 81.7346 29.7337 81.7346 30.067C81.7346 30.4003 81.668 30.8003 81.6013 31.1337ZM72.868 25.267C72.268 25.267 71.7346 25.467 71.268 25.7337C70.8013 26.067 70.468 26.5337 70.2013 27.067H70.1346V25.5337H67.9346V34.7337H70.268V29.8003C70.268 29.667 70.268 29.4003 70.3346 29.1337C70.4013 28.867 70.5346 28.6003 70.668 28.3337C70.868 28.067 71.068 27.867 71.4013 27.667C71.7346 27.467 72.1346 27.4003 72.668 27.4003C72.8013 27.4003 72.868 27.4003 73.0013 27.4003C73.1346 27.4003 73.268 27.467 73.4013 27.467V25.3337C73.3346 25.3337 73.2013 25.267 73.1346 25.267C73.068 25.267 73.0013 25.267 72.868 25.267ZM72.668 16.5337C73.1346 16.9337 73.6013 17.267 74.2013 17.467C74.8013 17.667 75.468 17.8003 76.2013 17.8003C77.9346 17.8003 79.268 17.2003 80.1346 15.9337L78.6013 14.7337C78.3346 15.1337 78.0013 15.4003 77.6013 15.6003C77.2013 15.8003 76.7346 15.9337 76.1346 15.9337C75.8013 15.9337 75.468 15.867 75.2013 15.7337C74.868 15.6003 74.6013 15.467 74.4013 15.267C74.1346 15.067 73.9346 14.8003 73.8013 14.5337C73.668 14.267 73.5346 13.9337 73.5346 13.6003H80.5346C80.5346 13.467 80.5346 13.4003 80.5346 13.267V12.9337C80.5346 12.1337 80.4013 11.4003 80.2013 10.7337C80.0013 10.1337 79.668 9.60033 79.268 9.20033C78.868 8.80033 78.4013 8.46699 77.868 8.26699C77.3346 8.06699 76.7346 7.93366 76.068 7.93366C75.4013 7.93366 74.7346 8.06699 74.1346 8.26699C73.5346 8.53366 73.0013 8.86699 72.6013 9.26699C72.1346 9.66699 71.8013 10.2003 71.6013 10.8003C71.3346 11.4003 71.2013 12.067 71.2013 12.8003C71.2013 13.5337 71.3346 14.2003 71.6013 14.8003C71.868 15.6003 72.2013 16.1337 72.668 16.5337ZM74.3346 10.4003C74.8013 10.0003 75.4013 9.80033 76.068 9.80033C76.468 9.80033 76.7346 9.86699 77.068 10.0003C77.3346 10.1337 77.6013 10.267 77.7346 10.467C77.9346 10.667 78.068 10.9337 78.1346 11.2003C78.2013 11.467 78.268 11.7337 78.268 12.067H73.5346C73.6013 11.3337 73.868 10.8003 74.3346 10.4003ZM65.4013 22.067C64.9346 21.7337 64.4013 21.5337 63.8013 21.4003C63.2013 21.267 62.468 21.2003 61.668 21.2003H57.2013V34.8003H59.6013V29.2003H61.468C62.2013 29.2003 62.868 29.1337 63.5346 29.0003C64.2013 28.867 64.7346 28.6003 65.2013 28.3337C65.668 28.0003 66.068 27.6003 66.3346 27.067C66.6013 26.5337 66.7346 25.9337 66.7346 25.1337C66.7346 24.4003 66.6013 23.8003 66.4013 23.3337C66.2013 22.867 65.868 22.3337 65.4013 22.067ZM64.068 26.067C63.9346 26.3337 63.668 26.5337 63.4013 26.667C63.1346 26.8003 62.8013 26.9337 62.468 27.0003C62.1346 27.067 61.7346 27.067 61.3346 27.067H59.668V23.1337H61.468C61.868 23.1337 62.2013 23.1337 62.5346 23.2003C62.868 23.267 63.2013 23.3337 63.468 23.467C63.7346 23.6003 63.9346 23.8003 64.1346 24.067C64.268 24.3337 64.4013 24.667 64.4013 25.067C64.3346 25.467 64.268 25.8003 64.068 26.067ZM68.868 13.8003C69.3346 12.9337 69.5346 11.9337 69.5346 10.7337C69.5346 9.46699 69.3346 8.40033 68.868 7.53366C68.4013 6.66699 67.868 6.00033 67.1346 5.46699C66.4013 4.93366 65.6013 4.53366 64.7346 4.33366C63.868 4.13366 62.9346 4.00033 62.068 4.00033H57.268V17.6003H62.068C62.9346 17.6003 63.868 17.467 64.7346 17.2003C65.6013 16.9337 66.468 16.5337 67.1346 16.0003C67.868 15.3337 68.468 14.667 68.868 13.8003ZM66.468 13.0003C66.1346 13.6003 65.7346 14.067 65.2013 14.4003C64.668 14.7337 64.1346 15.0003 63.468 15.1337C62.868 15.267 62.2013 15.3337 61.6013 15.3337H59.6013V6.00033H61.6013C62.2013 6.00033 62.868 6.06699 63.468 6.20033C64.068 6.33366 64.668 6.53366 65.2013 6.93366C65.7346 7.26699 66.1346 7.73366 66.468 8.40033C66.8013 9.00033 66.9346 9.80033 66.9346 10.8003C66.9346 11.667 66.8013 12.4003 66.468 13.0003ZM117.201 12.6003C117.201 12.467 117.201 12.2003 117.268 11.9337C117.335 11.667 117.468 11.4003 117.601 11.1337C117.801 10.867 118.001 10.667 118.335 10.467C118.668 10.267 119.068 10.2003 119.601 10.2003C119.735 10.2003 119.801 10.2003 119.935 10.2003C120.068 10.2003 120.201 10.267 120.335 10.267V8.13366C120.268 8.13366 120.135 8.06699 120.068 8.06699C119.935 8.06699 119.868 8.06699 119.801 8.06699C119.201 8.06699 118.668 8.26699 118.201 8.53366C117.735 8.86699 117.401 9.33366 117.135 9.86699H117.068V8.33366H114.868V17.5337H117.201V12.6003V12.6003ZM124.001 21.0003C123.601 21.0003 123.201 21.1337 122.935 21.4003C122.668 21.667 122.535 22.0003 122.535 22.4003C122.535 22.8003 122.668 23.067 122.935 23.4003C123.201 23.667 123.535 23.8003 124.001 23.8003C124.401 23.8003 124.801 23.667 125.068 23.4003C125.335 23.1337 125.468 22.8003 125.468 22.4003C125.468 22.0003 125.335 21.667 125.068 21.4003C124.735 21.1337 124.401 21.0003 124.001 21.0003ZM128.068 16.1337C128.268 15.7337 128.401 15.267 128.401 14.7337C128.401 14.267 128.335 13.9337 128.135 13.6003C127.935 13.267 127.735 13.0003 127.401 12.8003C127.135 12.6003 126.801 12.4003 126.468 12.267C126.135 12.1337 125.735 12.067 125.401 11.9337C124.735 11.8003 124.268 11.6003 123.935 11.467C123.601 11.3337 123.401 11.067 123.401 10.7337C123.401 10.4003 123.535 10.1337 123.868 9.93366C124.201 9.80033 124.535 9.73366 124.868 9.73366C125.268 9.73366 125.668 9.80033 126.068 10.0003C126.401 10.2003 126.735 10.4003 126.935 10.7337L128.401 9.40033C128.001 8.93366 127.535 8.60033 126.868 8.33366C126.201 8.13366 125.601 8.00033 124.935 8.00033C124.468 8.00033 124.001 8.06699 123.601 8.20033C123.135 8.33366 122.801 8.46699 122.401 8.73366C122.001 9.00033 121.801 9.26699 121.535 9.66699C121.335 10.067 121.201 10.467 121.201 11.0003C121.201 11.467 121.268 11.8003 121.401 12.067C121.535 12.3337 121.735 12.6003 122.001 12.8003C122.268 13.0003 122.535 13.1337 122.868 13.267C123.201 13.4003 123.535 13.467 123.868 13.5337C124.601 13.7337 125.068 13.867 125.468 14.0003C125.801 14.2003 126.001 14.467 126.001 14.8003C126.001 15.0003 125.935 15.2003 125.868 15.3337C125.801 15.467 125.668 15.6003 125.535 15.667C125.401 15.7337 125.201 15.8003 125.068 15.867C124.868 15.9337 124.735 15.9337 124.535 15.9337C124.068 15.9337 123.601 15.8003 123.201 15.6003C122.801 15.4003 122.468 15.1337 122.201 14.8003L120.668 16.2003C121.135 16.667 121.668 17.067 122.335 17.3337C123.001 17.6003 123.735 17.7337 124.401 17.7337C124.868 17.7337 125.401 17.667 125.868 17.6003C126.335 17.467 126.735 17.3337 127.068 17.067C127.601 16.867 127.868 16.5337 128.068 16.1337ZM135.468 26.5337C135.068 26.1337 134.601 25.8003 134.068 25.6003C133.535 25.4003 132.935 25.267 132.268 25.267C131.601 25.267 130.935 25.4003 130.335 25.6003C129.735 25.867 129.201 26.2003 128.801 26.6003C128.335 27.0003 128.001 27.5337 127.801 28.1337C127.535 28.7337 127.401 29.4003 127.401 30.1337C127.401 30.867 127.535 31.5337 127.801 32.1337C128.068 32.7337 128.401 33.2003 128.868 33.667C129.335 34.067 129.801 34.4003 130.401 34.6003C131.001 34.8003 131.668 34.9337 132.401 34.9337C134.135 34.9337 135.468 34.3337 136.335 33.067L134.801 31.867C134.535 32.267 134.201 32.5337 133.801 32.7337C133.401 32.9337 132.935 33.067 132.335 33.067C132.001 33.067 131.668 33.0003 131.401 32.867C131.068 32.7337 130.801 32.6003 130.601 32.4003C130.335 32.2003 130.135 31.9337 130.001 31.667C129.868 31.4003 129.735 31.067 129.735 30.7337H136.735C136.735 30.6003 136.735 30.5337 136.735 30.4003V30.067C136.735 29.267 136.601 28.5337 136.401 27.867C136.201 27.467 135.868 26.9337 135.468 26.5337ZM129.735 29.2003C129.801 28.5337 130.068 28.0003 130.535 27.6003C131.001 27.2003 131.601 27.0003 132.268 27.0003C132.668 27.0003 132.935 27.067 133.268 27.2003C133.535 27.3337 133.801 27.467 133.935 27.667C134.135 27.867 134.268 28.1337 134.335 28.4003C134.401 28.667 134.468 28.9337 134.468 29.267H129.735V29.2003ZM122.868 34.7337H125.201V25.5337H122.868V34.7337ZM144.535 30.0003C144.268 29.8003 143.935 29.6003 143.601 29.467C143.268 29.3337 142.868 29.267 142.535 29.1337C141.868 29.0003 141.401 28.8003 141.068 28.667C140.735 28.5337 140.535 28.267 140.535 27.9337C140.535 27.6003 140.668 27.3337 141.001 27.1337C141.335 27.0003 141.668 26.9337 142.001 26.9337C142.401 26.9337 142.801 27.0003 143.201 27.2003C143.535 27.4003 143.868 27.6003 144.068 27.9337L145.535 26.6003C145.135 26.1337 144.668 25.8003 144.001 25.5337C143.335 25.3337 142.735 25.2003 142.068 25.2003C141.601 25.2003 141.135 25.267 140.735 25.4003C140.268 25.5337 139.935 25.667 139.535 25.9337C139.135 26.2003 138.935 26.467 138.668 26.867C138.468 27.267 138.335 27.667 138.335 28.2003C138.335 28.667 138.401 29.0003 138.535 29.267C138.668 29.5337 138.868 29.8003 139.135 30.0003C139.401 30.2003 139.668 30.3337 140.001 30.467C140.335 30.6003 140.668 30.667 141.001 30.7337C141.735 30.9337 142.201 31.067 142.601 31.2003C142.935 31.4003 143.135 31.667 143.135 32.0003C143.135 32.2003 143.068 32.4003 143.001 32.5337C142.935 32.667 142.801 32.8003 142.668 32.867C142.535 32.9337 142.335 33.0003 142.201 33.067C142.001 33.1337 141.868 33.1337 141.668 33.1337C141.201 33.1337 140.735 33.0003 140.335 32.8003C139.935 32.6003 139.601 32.3337 139.335 32.0003L137.801 33.4003C138.268 33.867 138.801 34.267 139.468 34.5337C140.135 34.8003 140.868 34.9337 141.535 34.9337C142.001 34.9337 142.535 34.867 143.001 34.8003C143.468 34.667 143.868 34.5337 144.201 34.267C144.535 34.0003 144.868 33.7337 145.068 33.3337C145.268 32.9337 145.401 32.467 145.401 31.9337C145.401 31.467 145.335 31.1337 145.135 30.8003C145.068 30.467 144.868 30.2003 144.535 30.0003ZM102.468 8.33366H100.001L97.5346 15.067H97.468L95.068 8.33366H92.5346L96.268 17.5337H98.7346L102.468 8.33366ZM118.801 22.867H116.535V25.5337H115.001V25.3337C114.935 25.3337 114.801 25.267 114.735 25.267C114.601 25.267 114.535 25.267 114.468 25.267C113.868 25.267 113.335 25.467 112.868 25.7337C112.401 26.067 112.068 26.5337 111.801 27.067H111.735V25.5337H109.535V34.7337H111.868V29.8003C111.868 29.667 111.868 29.4003 111.935 29.1337C112.001 28.867 112.135 28.6003 112.268 28.3337C112.468 28.067 112.668 27.867 113.001 27.667C113.335 27.467 113.735 27.4003 114.268 27.4003C114.401 27.4003 114.468 27.4003 114.601 27.4003C114.735 27.4003 114.868 27.467 115.001 27.467V27.3337H116.535V31.667C116.535 32.1337 116.601 32.5337 116.668 32.9337C116.735 33.3337 116.935 33.667 117.135 34.0003C117.335 34.3337 117.668 34.5337 118.068 34.7337C118.468 34.9337 118.935 35.0003 119.535 35.0003C119.801 35.0003 120.068 35.0003 120.335 34.9337C120.601 34.867 120.868 34.8003 121.068 34.7337L121.001 32.9337C120.868 33.0003 120.668 33.067 120.535 33.067C120.335 33.067 120.201 33.1337 120.068 33.1337C119.535 33.1337 119.201 33.0003 119.068 32.7337C118.935 32.467 118.868 32.1337 118.868 31.7337V27.3337H121.201V25.467H118.868V22.867H118.801ZM95.0013 26.667C94.6013 26.2003 94.1346 25.867 93.6013 25.667C93.068 25.4003 92.468 25.267 91.8013 25.267C91.4013 25.267 91.0013 25.3337 90.668 25.4003C90.3346 25.467 90.0013 25.6003 89.7346 25.7337C89.468 25.867 89.268 26.067 89.068 26.2003C88.868 26.4003 88.7346 26.6003 88.6013 26.7337H88.5346V25.467H86.3346V39.3337H88.668V33.467H88.7346C89.0013 33.9337 89.468 34.267 90.0013 34.5337C90.5346 34.8003 91.1346 34.9337 91.8013 34.9337C92.5346 34.9337 93.1346 34.8003 93.668 34.5337C94.2013 34.267 94.668 33.9337 95.068 33.467C95.468 33.0003 95.7346 32.5337 96.0013 31.9337C96.2013 31.3337 96.3346 30.7337 96.3346 30.0003C96.3346 29.267 96.2013 28.667 96.0013 28.067C95.7346 27.6003 95.4013 27.067 95.0013 26.667ZM93.7346 31.1337C93.6013 31.467 93.468 31.8003 93.268 32.067C93.068 32.3337 92.8013 32.6003 92.468 32.7337C92.1346 32.9337 91.7346 33.0003 91.268 33.0003C90.868 33.0003 90.468 32.9337 90.1346 32.7337C89.8013 32.5337 89.5346 32.3337 89.268 32.067C89.0013 31.8003 88.868 31.467 88.7346 31.1337C88.6013 30.8003 88.5346 30.4003 88.5346 30.067C88.5346 29.7337 88.6013 29.3337 88.7346 29.0003C88.868 28.667 89.068 28.3337 89.268 28.067C89.5346 27.8003 89.8013 27.5337 90.1346 27.4003C90.468 27.2003 90.868 27.1337 91.268 27.1337C91.7346 27.1337 92.1346 27.2003 92.468 27.4003C92.8013 27.6003 93.068 27.8003 93.268 28.067C93.468 28.3337 93.668 28.667 93.7346 29.0003C93.868 29.3337 93.868 29.7337 93.868 30.067C93.868 30.4003 93.868 30.8003 93.7346 31.1337ZM87.268 9.93366C87.668 9.93366 87.9346 10.0003 88.1346 10.1337C88.3346 10.267 88.5346 10.467 88.668 10.7337C88.8013 11.0003 88.868 11.267 88.9346 11.5337C89.0013 11.8003 89.0013 12.1337 89.0013 12.4003V17.5337H91.3346V11.8003C91.3346 11.3337 91.268 10.867 91.1346 10.4003C91.0013 9.93366 90.8013 9.53366 90.5346 9.20033C90.268 8.86699 89.9346 8.60033 89.468 8.33366C89.068 8.13366 88.5346 8.00033 87.9346 8.00033C87.268 8.00033 86.668 8.20033 86.1346 8.53366C85.6013 8.86699 85.268 9.26699 85.068 9.73366H85.0013V8.26699H82.8013V17.467H85.1346V12.4003C85.1346 12.067 85.2013 11.8003 85.268 11.467C85.3346 11.1337 85.468 10.867 85.668 10.667C85.868 10.467 86.068 10.267 86.3346 10.067C86.6013 10.0003 86.9346 9.93366 87.268 9.93366ZM106.001 26.5337C105.601 26.1337 105.135 25.8003 104.601 25.6003C104.068 25.4003 103.468 25.267 102.801 25.267C102.135 25.267 101.468 25.4003 100.868 25.6003C100.268 25.867 99.7346 26.2003 99.3346 26.6003C98.868 27.0003 98.5346 27.5337 98.3346 28.1337C98.068 28.7337 97.9346 29.4003 97.9346 30.1337C97.9346 30.867 98.068 31.5337 98.3346 32.1337C98.6013 32.7337 98.9346 33.2003 99.4013 33.667C99.868 34.067 100.335 34.4003 100.935 34.6003C101.535 34.8003 102.201 34.9337 102.935 34.9337C104.668 34.9337 106.001 34.3337 106.868 33.067L105.335 31.867C105.068 32.267 104.735 32.5337 104.335 32.7337C103.935 32.9337 103.468 33.067 102.868 33.067C102.535 33.067 102.201 33.0003 101.935 32.867C101.601 32.7337 101.335 32.6003 101.135 32.4003C100.868 32.2003 100.668 31.9337 100.535 31.667C100.401 31.4003 100.268 31.067 100.268 30.7337H107.268C107.268 30.6003 107.268 30.5337 107.268 30.4003V30.067C107.268 29.267 107.135 28.5337 106.935 27.867C106.735 27.467 106.401 26.9337 106.001 26.5337ZM100.268 29.2003C100.335 28.5337 100.601 28.0003 101.068 27.6003C101.535 27.2003 102.135 27.0003 102.801 27.0003C103.201 27.0003 103.468 27.067 103.801 27.2003C104.068 27.3337 104.335 27.467 104.468 27.667C104.668 27.867 104.801 28.1337 104.868 28.4003C104.935 28.667 105.001 28.9337 105.001 29.267H100.268V29.2003ZM112.268 15.9337L110.735 14.7337C110.468 15.1337 110.135 15.4003 109.735 15.6003C109.335 15.8003 108.868 15.9337 108.268 15.9337C107.935 15.9337 107.601 15.867 107.335 15.7337C107.001 15.6003 106.735 15.467 106.535 15.267C106.268 15.067 106.068 14.8003 105.935 14.5337C105.801 14.267 105.668 13.9337 105.668 13.6003H112.668C112.668 13.467 112.668 13.4003 112.668 13.267V12.9337C112.668 12.1337 112.535 11.4003 112.335 10.7337C112.135 10.1337 111.801 9.60033 111.401 9.20033C111.001 8.80033 110.535 8.46699 110.001 8.26699C109.468 8.06699 108.868 7.93366 108.201 7.93366C107.535 7.93366 106.868 8.06699 106.268 8.26699C105.668 8.53366 105.135 8.86699 104.735 9.26699C104.268 9.66699 103.935 10.2003 103.735 10.8003C103.468 11.4003 103.335 12.067 103.335 12.8003C103.335 13.5337 103.468 14.2003 103.735 14.8003C104.001 15.4003 104.335 15.867 104.801 16.3337C105.268 16.7337 105.735 17.067 106.335 17.267C106.935 17.467 107.601 17.6003 108.335 17.6003C110.001 17.8003 111.335 17.2003 112.268 15.9337ZM106.401 10.4003C106.868 10.0003 107.468 9.80033 108.135 9.80033C108.535 9.80033 108.801 9.86699 109.135 10.0003C109.401 10.1337 109.668 10.267 109.801 10.467C110.001 10.667 110.135 10.9337 110.201 11.2003C110.268 11.467 110.335 11.7337 110.335 12.067H105.601C105.668 11.3337 105.935 10.8003 106.401 10.4003Z" fill="#A1A1A1"/>
</svg>
