<svg width="187" height="54" viewBox="0 0 187 54" fill="none" xmlns="http://www.w3.org/2000/svg">
<path d="M53.3987 29.5333L51.2654 37.6L49.132 29.5333H46.132L49.9987 42.2667H52.5987L56.4654 29.5333H53.3987ZM93.9987 37.6667C94.9987 37.4 95.732 36.9333 96.2653 36.2667C96.7987 35.5333 96.9987 34.7333 96.9987 33.8C96.9987 32.6667 96.5987 31.6667 95.8654 30.8C95.132 30 94.0654 29.5333 92.6654 29.5333H87.4654V42.2667H90.3987V37.8H90.9987L93.932 42.2667H97.332L93.9987 37.6667ZM93.5987 35C93.2654 35.3333 92.8654 35.4667 92.1987 35.4667H90.332V32H92.2654C92.7987 32 93.2654 32.2 93.532 32.5333C93.8654 32.8667 93.9987 33.2667 93.9987 33.7333C94.0654 34.2667 93.8654 34.6667 93.5987 35ZM116.932 29.5333H107.265V32.0667H110.665V42.2667H113.599V32.0667H116.999V29.5333H116.932ZM10.332 42.2667H13.2654V29.5333H10.332V42.2667ZM128.065 42.2667H130.999V29.5333H128.065V42.2667ZM70.3987 37.3333H74.9987V34.6667H70.3987V32.0667H75.6654V29.5333H67.4654V42.2667H75.7987V39.7333H70.332V37.3333H70.3987ZM32.1987 36.8L28.132 29.5333H25.4654V42.2667H28.332V34.9333L32.532 42.2667H35.0654V29.5333H32.132V36.8H32.1987ZM171.732 29.5333H168.332L163.865 42.2667H166.865L167.799 39.3333H172.399L173.332 42.2667H176.399L171.732 29.5333ZM168.599 36.8L170.132 32.3333L171.599 36.8H168.599ZM149.065 32.1333C150.332 32.1333 151.332 32.6667 152.065 33.8L154.332 32.2C153.732 31.3333 152.999 30.6667 151.999 30.1333C151.065 29.6 149.999 29.3333 148.932 29.3333C147.132 29.3333 145.599 30 144.332 31.2667C143.065 32.5333 142.465 34.0667 142.465 35.8667C142.465 37.6667 143.132 39.2 144.332 40.5333C145.599 41.8 147.132 42.4667 148.932 42.4667C149.999 42.4667 151.065 42.2 151.999 41.7333C152.932 41.2 153.732 40.5333 154.332 39.6667L152.065 38.0667C151.332 39.2 150.332 39.7333 149.065 39.7333C147.999 39.7333 147.132 39.3333 146.399 38.6C145.732 37.8667 145.399 36.9333 145.399 35.8667C145.399 34.8 145.732 33.9333 146.465 33.2C147.065 32.4667 147.999 32.1333 149.065 32.1333ZM48.9987 51.6667C48.9987 52 48.8654 52.2667 48.6654 52.4667C48.4654 52.6667 48.1987 52.7333 47.8654 52.7333C47.532 52.7333 47.2654 52.6667 47.0654 52.4667C46.8654 52.2667 46.732 52 46.732 51.6667V48.6H46.132V51.6667C46.132 52.2 46.2654 52.6 46.5987 52.8667C46.932 53.2 47.332 53.3333 47.7987 53.3333C48.2654 53.3333 48.6654 53.2 48.9987 52.8667C49.332 52.5333 49.4654 52.1333 49.4654 51.6667V48.6H48.9987V51.6667ZM72.5987 51C72.7987 50.7333 72.932 50.4 72.932 50C72.932 49.6 72.7987 49.2667 72.5987 48.9333C72.3987 48.6 71.9987 48.5333 71.532 48.5333H69.7987V53.2H70.332V51.4667H70.932L72.132 53.2H72.8654L71.6654 51.4667C72.0654 51.4667 72.3987 51.2667 72.5987 51ZM70.332 50.9333V49.1333H71.4654C71.732 49.1333 71.8654 49.2 72.0654 49.4C72.1987 49.5333 72.2654 49.8 72.2654 50.0667C72.2654 50.6667 71.932 50.9333 71.332 50.9333H70.332ZM40.2654 48.6H39.6654V53.2667H42.1987V52.6667H40.2654V48.6ZM64.4654 51.6667C64.4654 52 64.332 52.2667 64.132 52.4667C63.932 52.6667 63.6654 52.7333 63.332 52.7333C62.9987 52.7333 62.732 52.6667 62.532 52.4667C62.332 52.2667 62.1987 52 62.1987 51.6667V48.6H61.6654V51.6667C61.6654 52.2 61.7987 52.6 62.132 52.8667C62.4654 53.2 62.8654 53.3333 63.332 53.3333C63.7987 53.3333 64.1987 53.2 64.532 52.8667C64.8654 52.5333 64.9987 52.1333 64.9987 51.6667V48.6H64.3987V51.6667H64.4654ZM57.4654 48.6H56.732L55.6654 50.2667L54.5987 48.6H53.8654L55.332 50.8L53.6654 53.2667H54.332L55.5987 51.3333L56.8654 53.2667H57.6654L55.9987 50.8L57.4654 48.6ZM78.5987 50.5333L77.2654 48.6H76.532L78.332 51.1333V53.2667H78.932V51.1333L80.732 48.6H79.9987L78.5987 50.5333ZM117.532 48.5333C116.865 48.5333 116.332 48.7333 115.865 49.2C115.399 49.6667 115.199 50.2 115.199 50.9333C115.199 51.6 115.399 52.1333 115.865 52.6C116.332 53.0667 116.865 53.2667 117.532 53.2667C118.199 53.2667 118.732 53.0667 119.199 52.6C119.665 52.1333 119.865 51.6 119.865 50.9333C119.865 50.2667 119.665 49.6667 119.199 49.2C118.732 48.8 118.199 48.5333 117.532 48.5333ZM118.799 52.2C118.465 52.5333 118.065 52.7333 117.532 52.7333C117.065 52.7333 116.665 52.5333 116.265 52.2C115.932 51.8667 115.732 51.4 115.732 50.9333C115.732 50.4 115.932 50 116.265 49.6667C116.599 49.3333 116.999 49.1333 117.532 49.1333C117.999 49.1333 118.465 49.3333 118.799 49.6667C119.132 50 119.332 50.4667 119.332 50.9333C119.265 51.4667 119.132 51.8667 118.799 52.2ZM103.732 53.2667H104.332V48.6H103.732V53.2667ZM109.665 48.6H109.065V53.2667H111.599V52.6667H109.665V48.6ZM133.465 50.6667L132.865 50.5333C132.399 50.4 132.199 50.2 132.199 49.8667C132.199 49.6667 132.265 49.4667 132.465 49.3333C132.665 49.2 132.865 49.1333 133.132 49.1333C133.399 49.1333 133.599 49.2 133.799 49.3333C133.999 49.4667 134.065 49.6667 134.065 49.8667H134.665C134.665 49.4667 134.532 49.1333 134.265 48.8667C133.999 48.6 133.599 48.4667 133.199 48.4667C132.799 48.4667 132.399 48.6 132.132 48.8C131.799 49.0667 131.665 49.3333 131.665 49.7333C131.665 50.3333 132.065 50.7333 132.799 50.9333L133.399 51.0667C133.932 51.2 134.199 51.4667 134.199 51.8C134.199 52 134.132 52.2 133.932 52.3333C133.799 52.4667 133.532 52.6 133.265 52.6C132.999 52.6 132.732 52.5333 132.532 52.3333C132.332 52.1333 132.265 52 132.199 51.7333H131.599C131.599 52.1333 131.732 52.4667 132.065 52.7333C132.399 53 132.799 53.1333 133.265 53.1333C133.732 53.1333 134.132 53 134.399 52.7333C134.665 52.4667 134.799 52.1333 134.799 51.7333C134.799 51.4 134.665 51.1333 134.465 50.9333C134.199 50.9333 133.865 50.8 133.465 50.6667ZM127.132 51C127.332 50.7333 127.465 50.4 127.465 50C127.465 49.6 127.332 49.2667 127.132 48.9333C126.932 48.6 126.532 48.5333 126.065 48.5333H124.332V53.2H124.932V51.4667H125.532L126.732 53.2H127.465L126.199 51.4C126.665 51.4667 126.932 51.2667 127.132 51ZM124.932 50.9333V49.1333H126.065C126.332 49.1333 126.465 49.2 126.665 49.4C126.799 49.5333 126.865 49.8 126.865 50.0667C126.865 50.6667 126.532 50.9333 125.932 50.9333H124.932ZM88.8654 49.1333H90.2654V53.2H90.8654V49.1333H92.2654V48.5333H88.7987V49.1333H88.8654ZM97.2653 48.6L95.4653 53.2667H96.132L96.5987 52.0667H98.5987L99.0654 53.2667H99.732L97.932 48.6H97.2653ZM96.7987 51.5333L97.5987 49.4L98.3987 51.5333H96.7987ZM83.8654 11.8C81.9987 11.8 80.4654 13.3333 80.4654 15.2C80.4654 17.0667 81.9987 18.6 83.8654 18.6C85.732 18.6 87.2654 17.0667 87.2654 15.2C87.2654 13.3333 85.732 11.8 83.8654 11.8ZM96.1987 18.5333C98.0654 18.5333 99.5987 17 99.5987 15.1333C99.5987 13.2667 98.0654 11.7333 96.1987 11.7333C94.332 11.7333 92.7987 13.2667 92.7987 15.1333C92.7987 17.0667 94.332 18.5333 96.1987 18.5333ZM96.1987 6.8C98.0654 6.8 99.5987 5.26667 99.5987 3.4C99.5987 1.53333 98.0654 0 96.1987 0C94.332 0 92.7987 1.53333 92.7987 3.4C92.7987 5.26667 94.332 6.8 96.1987 6.8ZM83.8654 0C81.9987 0 80.4654 1.53333 80.4654 3.4C80.4654 5.26667 81.9987 6.8 83.8654 6.8C85.732 6.8 87.2654 5.26667 87.2654 3.4C87.2654 1.53333 85.732 0 83.8654 0Z" fill="#A1A1A1"/>
</svg>
