<svg width="188" height="54" viewBox="0 0 188 54" fill="none" xmlns="http://www.w3.org/2000/svg">
<path d="M79.4023 18.3745C74.3874 18.3745 70.7655 22.4421 70.7655 26.8998C70.7655 31.2461 74.1645 35.4809 79.2909 35.4809C84.3058 35.4809 87.8719 31.4133 87.8719 26.9555C87.9277 22.665 84.5287 18.3745 79.4023 18.3745ZM79.3466 31.3575C76.7277 31.3575 75.4461 29.1844 75.4461 26.8998C75.4461 24.671 76.6162 22.4421 79.2909 22.4421C81.9098 22.4421 83.1914 24.5595 83.1914 26.8441C83.1914 29.073 82.0769 31.3575 79.3466 31.3575ZM69.3167 24.2809C69.3167 21.3834 66.9207 18.4302 63.6331 18.4302H55.8879V35.3138H60.5127V30.1317H62.4073L65.3605 35.3138H70.4311L66.865 29.1287C68.4252 28.07 69.3167 26.2312 69.3167 24.2809ZM63.4103 26.1197H60.5127V22.4978H63.2988C63.856 22.4978 64.5804 23.1665 64.5804 24.2809C64.5804 25.4511 64.0232 26.1197 63.4103 26.1197ZM132.059 18.3745C127.044 18.3745 123.422 22.4421 123.422 26.8998C123.422 31.2461 126.821 35.4809 131.948 35.4809C136.962 35.4809 140.529 31.4133 140.529 26.9555C140.584 22.665 137.185 18.3745 132.059 18.3745ZM132.003 31.3575C129.384 31.3575 128.103 29.1844 128.103 26.8998C128.103 24.671 129.273 22.4421 131.948 22.4421C134.566 22.4421 135.848 24.5595 135.848 26.8441C135.904 29.073 134.734 31.3575 132.003 31.3575ZM165.102 28.6272H171.231V24.8939H165.102V22.4978H172.29V18.4302H160.477V35.3138H172.513V31.2461H165.102V28.6272ZM182.208 24.9496C180.258 24.3366 179.088 24.1138 179.088 23.2779C179.088 22.665 179.645 22.4421 180.425 22.4421C182.431 22.4421 184.883 24.0023 184.883 24.0023L186.889 20.1575C185.384 19.3774 182.988 18.3187 180.592 18.3187C177.249 18.3187 174.296 20.269 174.296 24.0023C174.296 26.4541 175.577 27.7356 178.586 28.7386C180.592 29.4073 182.32 29.6302 182.32 30.6332C182.32 31.0789 181.985 31.3575 180.982 31.3575C178.363 31.3575 175.577 29.5187 175.577 29.5187L173.571 33.5864C175.577 34.7565 178.475 35.5366 180.927 35.5366C184.047 35.5366 187.335 34.2551 187.335 30.1874C187.279 27.0113 185.329 25.8968 182.208 24.9496ZM100.298 27.0113L93.4998 18.4302H89.8779V35.3138H94.5028V27.0113L101.189 35.3138H104.867V18.4302H100.242V27.0113H100.298ZM117.014 27.0113C117.014 30.2431 116.736 31.469 114.73 31.469C113.392 31.469 112.222 30.9118 112.055 30.7446L111.108 34.5337C112.111 35.2023 113.337 35.5924 114.785 35.5924C120.915 35.5924 121.695 32.1934 121.695 27.0113V18.4302H117.07V27.0113H117.014ZM152.955 27.0113L146.157 18.4302H142.535V35.3138H147.16V27.0113L153.902 35.3138H157.579V18.4302H152.955V27.0113ZM0.667969 49.2441H45.2451V4.66699H0.667969V49.2441ZM26.0769 31.0232C26.2441 31.1904 27.4142 31.7476 28.7516 31.7476C30.7018 31.7476 31.0361 30.5217 31.0361 27.2899V18.7088H35.661V27.2899C35.661 32.4162 34.8809 35.871 28.7516 35.871C27.3028 35.871 26.0769 35.5366 25.0739 34.8123L26.0769 31.0232ZM10.4749 18.7088H18.2202C21.5078 18.7088 23.9038 21.662 23.9038 24.5595C23.9038 26.5098 23.0122 28.2929 21.452 29.4073L25.0182 35.5924H19.9476L16.9943 30.4103H15.0998V35.5924H10.4749V18.7088ZM19.1675 24.5595C19.1675 23.3894 18.4431 22.7764 17.8859 22.7764H15.0998V26.3983H17.9973C18.6103 26.3983 19.1675 25.7297 19.1675 24.5595Z" fill="#A1A1A1"/>
</svg>
