<svg width="187" height="54" viewBox="0 0 187 54" fill="none" xmlns="http://www.w3.org/2000/svg">
<path d="M70.4993 49.4715C69.2342 49.4715 68.1689 50.4702 68.1689 51.7353C68.1689 52.6009 68.8347 53.2668 69.7003 53.2668C70.9654 53.2668 72.0307 52.2014 72.0307 51.0029C72.0307 50.1373 71.4315 49.4715 70.4993 49.4715ZM69.8335 52.8673C69.1676 52.8673 68.635 52.3346 68.635 51.6688C68.635 50.67 69.434 49.8044 70.4327 49.8044C71.0986 49.8044 71.6312 50.3371 71.6312 51.0029C71.6312 52.0017 70.8322 52.8673 69.8335 52.8673ZM95.5347 50.7366C95.5347 51.1361 95.801 51.4024 96.6 51.6022C97.1993 51.7353 97.399 51.9351 97.399 52.1348C97.399 52.6009 96.9995 52.9338 96.3337 52.9338C95.9342 52.9338 95.4681 52.7341 95.2684 52.4012L94.9354 52.7341C95.2018 53.067 95.801 53.3333 96.2671 53.3333C97.1327 53.3333 97.7985 52.8007 97.7985 52.0683C97.7985 51.6022 97.5322 51.4024 96.7998 51.2027C96.2005 51.0695 95.9342 50.8697 95.9342 50.67C95.9342 50.2039 96.3337 49.9376 96.9329 49.9376C97.2659 49.9376 97.6654 50.1373 97.8651 50.4037L98.198 50.0707C97.9317 49.7378 97.399 49.5381 96.9995 49.5381C96.1339 49.4715 95.5347 50.0042 95.5347 50.7366ZM79.821 49.5381H78.3562L77.6237 53.2002H78.0232L78.2896 51.8685H79.2883L80.0873 53.2002H80.5534L79.7544 51.8685C80.4868 51.7353 81.0195 51.2027 81.0195 50.5368C81.0195 49.9376 80.4868 49.5381 79.821 49.5381ZM79.4215 51.469H78.3562L78.6891 49.9376H79.7544C80.2205 49.9376 80.5534 50.2039 80.5534 50.5368C80.5534 51.0695 80.0873 51.469 79.4215 51.469ZM86.8788 49.9376H88.1439L87.4781 53.2002H87.8776L88.5434 49.9376H89.8085L89.8751 49.5381H86.9454L86.8788 49.9376ZM114.711 53.2002H117.374L117.441 52.8007H115.243L115.51 51.5356H117.507L117.574 51.1361H115.576L115.843 49.9376H118.04L118.106 49.5381H115.443L114.711 53.2002ZM61.5106 49.5381H60.0457L59.3133 53.2002H59.6462L59.9126 51.8685H60.9779C61.8435 51.8685 62.6425 51.2693 62.6425 50.5368C62.6425 49.9376 62.1764 49.5381 61.5106 49.5381ZM61.1111 51.469H60.0457L60.3786 49.9376H61.444C61.9101 49.9376 62.243 50.2039 62.243 50.5368C62.243 51.0695 61.7103 51.469 61.1111 51.469ZM125.963 49.5381H125.497L123.1 53.2002H123.566L124.099 52.3346H126.163L126.363 53.2002H126.829L125.963 49.5381ZM126.096 52.0017H124.365L125.63 50.0707L126.096 52.0017ZM51.1901 50.7366C51.1901 51.1361 51.4565 51.4024 52.2555 51.6022C52.8547 51.7353 53.0545 51.9351 53.0545 52.1348C53.0545 52.6009 52.655 52.9338 51.9891 52.9338C51.5896 52.9338 51.1235 52.7341 50.9238 52.4012L50.5909 52.7341C50.8572 53.067 51.4565 53.3333 51.9225 53.3333C52.7881 53.3333 53.454 52.8007 53.454 52.0683C53.454 51.6022 53.1876 51.4024 52.4552 51.2027C51.856 51.0695 51.5896 50.8697 51.5896 50.67C51.5896 50.2039 51.9891 49.9376 52.5884 49.9376C52.9213 49.9376 53.3208 50.1373 53.5205 50.4037L53.8535 50.0707C53.5871 49.7378 53.0545 49.5381 52.655 49.5381C51.7228 49.4715 51.1901 50.0042 51.1901 50.7366ZM134.952 49.5381H133.487L132.755 53.2002H133.154L133.421 51.8685H134.419L135.218 53.2002H135.684L134.885 51.8685C135.618 51.7353 136.151 51.2027 136.151 50.5368C136.084 49.9376 135.618 49.5381 134.952 49.5381ZM134.553 51.469H133.487L133.82 49.9376H134.885C135.352 49.9376 135.684 50.2039 135.684 50.5368C135.684 51.0695 135.152 51.469 134.553 51.469ZM107.453 52.5343L107.12 49.5381H106.654L105.056 52.5343L104.657 49.5381H104.191L104.657 53.2002H105.056L106.721 50.0707L107.054 53.2002H107.453L109.451 49.5381H108.985L107.453 52.5343ZM63.5746 34.4902H61.3774L55.9175 43.4124H58.1148L59.047 41.881H62.9088L63.2417 43.4124H65.3724L63.5746 34.4902ZM59.9791 40.4162L61.9766 37.1536L62.6425 40.4162H59.9791ZM51.856 38.1523H47.3283L47.7278 36.2214H52.655L52.9879 34.4902H46.1964L44.332 43.4124H46.263L46.9954 39.8835H51.4565L51.856 38.1523ZM113.046 34.5568H110.915L105.456 43.479H107.586L108.518 41.9476H112.38L112.713 43.479H114.844L113.046 34.5568ZM109.451 40.4162L111.448 37.1536L112.114 40.4162H109.451ZM142.01 36.2214L142.343 34.4902H135.485L133.62 43.4124H140.478L140.811 41.6812H135.884L136.284 39.7503H140.745L141.078 38.0191H136.617L136.95 36.2214H142.01ZM98.198 34.4902H96.2671L94.4028 43.4124H100.728L101.061 41.6812H96.6666L98.198 34.4902ZM83.3499 36.2214H86.1464L84.6816 43.4124H86.6125L88.0773 36.2214H90.8738L91.2068 34.4902H83.7494L83.3499 36.2214ZM126.629 40.283L123.566 34.4902H121.702L119.838 43.4124H121.769L123.034 37.6196L126.163 43.4124H128.027L129.892 34.4902H127.961L126.629 40.283ZM74.8272 38.1523C73.6287 37.886 73.2292 37.6862 73.2292 37.2867C73.2292 36.6209 73.8951 36.0216 74.9604 36.0216C75.6262 36.0216 76.5584 36.3546 77.2242 36.9538L78.4227 35.6887C77.6237 34.8897 76.3587 34.4236 75.1602 34.4236C72.8963 34.4236 71.2983 35.7553 71.2983 37.5531C71.2983 38.9513 72.3637 39.4174 74.0948 39.8169C75.2933 40.0832 75.6928 40.283 75.6928 40.6825C75.6928 41.3483 74.9604 41.9476 73.7619 41.9476C72.8963 41.9476 71.8976 41.5481 71.1652 40.8156L69.9001 42.0807C70.7657 43.0129 72.1639 43.6122 73.6287 43.6122C75.8926 43.6122 77.6237 42.3471 77.6237 40.4162C77.6903 39.1511 76.8247 38.5518 74.8272 38.1523ZM88.0773 1.1985C84.6816 2.7965 82.0182 5.92593 81.1527 9.85435C80.2871 13.8494 81.4856 17.7112 83.9492 20.5743L88.0773 1.1985ZM95.8676 0.266334C95.0686 0.0665834 94.203 0 93.404 0L88.4103 23.7703C89.1427 24.1032 89.9417 24.3695 90.8073 24.5027C91.6063 24.7025 92.4718 24.769 93.2708 24.769L98.2646 0.998752C97.5322 0.665834 96.7332 0.466084 95.8676 0.266334ZM102.659 4.26134L98.5975 23.6371C101.993 22.0391 104.657 18.9097 105.522 14.9813C106.388 11.0529 105.123 7.05784 102.659 4.26134Z" fill="#A1A1A1"/>
</svg>
