<svg width="187" height="54" viewBox="0 0 187 54" fill="none" xmlns="http://www.w3.org/2000/svg">
<path d="M63.2 46.2667C63.2 44.5333 61.8 42.8 59.8667 42.8H55.2667V53.2H57.2667V49.7333H59.2667L61.4 53.2H63.6L61.3333 49.3333C62.4667 48.8 63.2 47.6 63.2 46.2667ZM59.8667 47.9333H57.3333V44.5333H59.8C60.5333 44.5333 61.2 45.2667 61.2 46.2C61.1333 47.2 60.6 47.9333 59.8667 47.9333ZM70 48.7333H74.4V47.0667H70V44.5333H75.0667V42.7333H67.9333V53.1333H75.1333V51.3333H70V48.7333ZM45.7333 42.7333C42.8 42.7333 40.6 45.2667 40.6 48C40.6 50.6667 42.6667 53.2667 45.6667 53.2667C48.6 53.2667 50.7333 50.8 50.7333 48C50.8 45.4 48.7333 42.7333 45.7333 42.7333ZM45.7333 51.5333C43.8 51.5333 42.6667 49.8667 42.6667 48.0667C42.6667 46.3333 43.7333 44.6 45.7333 44.6C47.6 44.6 48.8 46.2667 48.8 48.0667C48.7333 49.7333 47.6667 51.5333 45.7333 51.5333ZM32 42.8H30V53.2H37.3333V51.4H32V42.8ZM155.133 42.8L152 48.7333L148.933 42.8H146.733V53.2H148.733V46.4L151.4 51.4667H152.533L155.2 46.4V53.2667H157.2V42.8H155.133ZM125.067 47.1333C123.467 46.7333 122.667 46.5333 122.667 45.6667C122.667 44.9333 123.2 44.4667 124.333 44.4667C125.6 44.4667 126.867 45.2 127.133 45.4667L128 43.8C127.067 43.2 125.8 42.6667 124.333 42.6667C122.2 42.6667 120.533 43.8 120.533 45.9333C120.533 47.5333 121.533 48.2 123.467 48.7333C125.067 49.2 126.133 49.4667 126.133 50.3333C126.133 51 125.533 51.4 124.467 51.4C122.867 51.4 121.333 50.4667 120.933 50.1333L120.067 51.8667C121.267 52.7333 122.867 53.2 124.467 53.2C126.533 53.2 128.333 52.3333 128.333 50.1333C128.4 48.3333 127.133 47.6667 125.067 47.1333ZM113.267 42.8H108.867V53.2H110.867V49.7333H113.333C115.267 49.7333 116.6 48.0667 116.6 46.2667C116.6 44.5333 115.2 42.8 113.267 42.8ZM113.267 47.9333H110.933V44.5333H113.2C113.933 44.5333 114.6 45.1333 114.6 46.2C114.533 47.2667 114 47.9333 113.267 47.9333ZM139.8 48.1333C139.8 49.8667 139.2 51.5333 137.267 51.5333C135.4 51.5333 134.733 49.8667 134.733 48.1333V42.8H132.733V48.1333C132.733 50.8 133.933 53.3333 137.267 53.3333C140.467 53.3333 141.8 51 141.8 48.1333V42.8H139.8V48.1333ZM101.733 53.2H103.733V42.8H101.733V53.2ZM84.9333 48.7333L81.8667 42.8H79.6667V53.2H81.6667V46.4L84.3333 51.4667H85.4667L88.1333 46.4V53.2667H90.1333V42.8H88L84.9333 48.7333ZM98.5333 0C96.5333 0 94.6667 0.8 93.2667 2.06667C91.8667 0.8 90 0 88 0C83.6667 0 80.1333 3.53333 80.1333 7.86667C80.1333 9.86667 80.9333 11.7333 82.2 13.1333C80.9333 14.5333 80.1333 16.4 80.1333 18.4C80.1333 22.7333 83.6667 26.2667 88 26.2667C90 26.2667 91.8667 25.4667 93.2667 24.2C94.6667 25.4667 96.5333 26.2667 98.5333 26.2667C102.867 26.2667 106.4 22.7333 106.4 18.4C106.4 16.4 105.6 14.5333 104.333 13.1333C105.6 11.7333 106.4 9.86667 106.4 7.86667C106.4 3.53333 102.867 0 98.5333 0ZM93.2667 21.0667C88.9333 21.0667 85.4 17.5333 85.4 13.2C85.4 8.86667 88.9333 5.33333 93.2667 5.33333C97.6 5.33333 101.133 8.86667 101.133 13.2C101.133 17.5333 97.6 21.0667 93.2667 21.0667Z" fill="#A1A1A1"/>
</svg>
